<?xml version="1.0" encoding="UTF-8" standalone="no"?>
<!DOCTYPE svg PUBLIC "-//W3C//DTD SVG 1.1//EN"
 "http://www.w3.org/Graphics/SVG/1.1/DTD/svg11.dtd">
<!-- Generated by graphviz version 2.42.3 (20191010.1750)
 -->
<!-- Title: %3 Pages: 1 -->
<svg width="338pt" height="332pt"
 viewBox="0.00 0.00 337.51 332.00" xmlns="http://www.w3.org/2000/svg" xmlns:xlink="http://www.w3.org/1999/xlink">
<g id="graph0" class="graph" transform="scale(1 1) rotate(0) translate(4 328)">
<title>%3</title>
<polygon fill="white" stroke="transparent" points="-4,4 -4,-328 333.51,-328 333.51,4 -4,4"/>
<!-- u_prop -->
<g id="node1" class="node">
<title>u_prop</title>
<ellipse fill="none" stroke="black" cx="150.01" cy="-162" rx="35.32" ry="18"/>
<text text-anchor="middle" x="150.01" y="-157.8" font-family="Times,serif" font-size="14.00">u_prop</text>
</g>
<!-- existence -->
<g id="node2" class="node">
<title>existence</title>
<ellipse fill="none" stroke="black" cx="43.01" cy="-90" rx="43.01" ry="18"/>
<text text-anchor="middle" x="43.01" y="-85.8" font-family="Times,serif" font-size="14.00">existence</text>
</g>
<!-- u_prop&#45;&gt;existence -->
<g id="edge1" class="edge">
<title>u_prop&#45;&gt;existence</title>
<path fill="none" stroke="black" d="M129.12,-147.34C113.48,-137.1 91.83,-122.94 74.15,-111.37"/>
<polygon fill="black" stroke="black" points="75.6,-108.14 65.31,-105.59 71.77,-114 75.6,-108.14"/>
</g>
<!-- continuity -->
<g id="node3" class="node">
<title>continuity</title>
<ellipse fill="none" stroke="black" cx="150.01" cy="-90" rx="46" ry="18"/>
<text text-anchor="middle" x="150.01" y="-85.8" font-family="Times,serif" font-size="14.00">continuity</text>
</g>
<!-- u_prop&#45;&gt;continuity -->
<g id="edge2" class="edge">
<title>u_prop&#45;&gt;continuity</title>
<path fill="none" stroke="black" d="M150.01,-143.7C150.01,-135.98 150.01,-126.71 150.01,-118.11"/>
<polygon fill="black" stroke="black" points="153.51,-118.1 150.01,-108.1 146.51,-118.1 153.51,-118.1"/>
</g>
<!-- monotonicity -->
<g id="node4" class="node">
<title>monotonicity</title>
<ellipse fill="none" stroke="black" cx="272.01" cy="-90" rx="57.5" ry="18"/>
<text text-anchor="middle" x="272.01" y="-85.8" font-family="Times,serif" font-size="14.00">monotonicity</text>
</g>
<!-- u_prop&#45;&gt;monotonicity -->
<g id="edge3" class="edge">
<title>u_prop&#45;&gt;monotonicity</title>
<path fill="none" stroke="black" d="M172.67,-148C190.68,-137.67 216.18,-123.03 236.84,-111.18"/>
<polygon fill="black" stroke="black" points="238.72,-114.14 245.65,-106.12 235.23,-108.06 238.72,-114.14"/>
</g>
<!-- uniqueness -->
<g id="node10" class="node">
<title>uniqueness</title>
<ellipse fill="none" stroke="black" cx="150.01" cy="-18" rx="49.5" ry="18"/>
<text text-anchor="middle" x="150.01" y="-13.8" font-family="Times,serif" font-size="14.00">uniqueness</text>
</g>
<!-- existence&#45;&gt;uniqueness -->
<g id="edge11" class="edge">
<title>existence&#45;&gt;uniqueness</title>
<path fill="none" stroke="black" d="M65.18,-74.5C80.61,-64.4 101.4,-50.8 118.54,-39.58"/>
<polygon fill="black" stroke="black" points="120.67,-42.37 127.13,-33.97 116.84,-36.51 120.67,-42.37"/>
</g>
<!-- continuity&#45;&gt;uniqueness -->
<g id="edge12" class="edge">
<title>continuity&#45;&gt;uniqueness</title>
<path fill="none" stroke="black" d="M150.01,-71.7C150.01,-63.98 150.01,-54.71 150.01,-46.11"/>
<polygon fill="black" stroke="black" points="153.51,-46.1 150.01,-36.1 146.51,-46.1 153.51,-46.1"/>
</g>
<!-- monotonicity&#45;&gt;uniqueness -->
<g id="edge13" class="edge">
<title>monotonicity&#45;&gt;uniqueness</title>
<path fill="none" stroke="black" d="M245.53,-73.81C227.63,-63.54 203.8,-49.86 184.42,-38.75"/>
<polygon fill="black" stroke="black" points="186.01,-35.62 175.59,-33.68 182.52,-41.69 186.01,-35.62"/>
</g>
<!-- u_def -->
<g id="node5" class="node">
<title>u_def</title>
<ellipse fill="none" stroke="black" cx="150.01" cy="-234" rx="30.49" ry="18"/>
<text text-anchor="middle" x="150.01" y="-229.8" font-family="Times,serif" font-size="14.00">u_def</text>
</g>
<!-- u_def&#45;&gt;u_prop -->
<g id="edge4" class="edge">
<title>u_def&#45;&gt;u_prop</title>
<path fill="none" stroke="black" d="M150.01,-215.7C150.01,-207.98 150.01,-198.71 150.01,-190.11"/>
<polygon fill="black" stroke="black" points="153.51,-190.1 150.01,-180.1 146.51,-190.1 153.51,-190.1"/>
</g>
<!-- v_prop -->
<g id="node6" class="node">
<title>v_prop</title>
<ellipse fill="none" stroke="black" cx="67.01" cy="-234" rx="35.32" ry="18"/>
<text text-anchor="middle" x="67.01" y="-229.8" font-family="Times,serif" font-size="14.00">v_prop</text>
</g>
<!-- v_prop&#45;&gt;u_prop -->
<g id="edge5" class="edge">
<title>v_prop&#45;&gt;u_prop</title>
<path fill="none" stroke="black" d="M84.61,-218.15C96.27,-208.32 111.76,-195.26 124.73,-184.32"/>
<polygon fill="black" stroke="black" points="127.04,-186.95 132.43,-177.82 122.53,-181.6 127.04,-186.95"/>
</g>
<!-- q_prop -->
<g id="node7" class="node">
<title>q_prop</title>
<ellipse fill="none" stroke="black" cx="233.01" cy="-234" rx="35.32" ry="18"/>
<text text-anchor="middle" x="233.01" y="-229.8" font-family="Times,serif" font-size="14.00">q_prop</text>
</g>
<!-- q_prop&#45;&gt;u_prop -->
<g id="edge6" class="edge">
<title>q_prop&#45;&gt;u_prop</title>
<path fill="none" stroke="black" d="M215.4,-218.15C203.74,-208.32 188.25,-195.26 175.28,-184.32"/>
<polygon fill="black" stroke="black" points="177.48,-181.6 167.58,-177.82 172.97,-186.95 177.48,-181.6"/>
</g>
<!-- v_def -->
<g id="node8" class="node">
<title>v_def</title>
<ellipse fill="none" stroke="black" cx="110.01" cy="-306" rx="30.49" ry="18"/>
<text text-anchor="middle" x="110.01" y="-301.8" font-family="Times,serif" font-size="14.00">v_def</text>
</g>
<!-- v_def&#45;&gt;u_def -->
<g id="edge7" class="edge">
<title>v_def&#45;&gt;u_def</title>
<path fill="none" stroke="black" d="M119.28,-288.76C124.18,-280.19 130.3,-269.49 135.78,-259.9"/>
<polygon fill="black" stroke="black" points="138.86,-261.57 140.78,-251.15 132.78,-258.09 138.86,-261.57"/>
</g>
<!-- v_def&#45;&gt;v_prop -->
<g id="edge8" class="edge">
<title>v_def&#45;&gt;v_prop</title>
<path fill="none" stroke="black" d="M100.03,-288.76C94.84,-280.32 88.38,-269.8 82.56,-260.31"/>
<polygon fill="black" stroke="black" points="85.44,-258.32 77.22,-251.63 79.48,-261.99 85.44,-258.32"/>
</g>
<!-- q_def -->
<g id="node9" class="node">
<title>q_def</title>
<ellipse fill="none" stroke="black" cx="190.01" cy="-306" rx="30.49" ry="18"/>
<text text-anchor="middle" x="190.01" y="-301.8" font-family="Times,serif" font-size="14.00">q_def</text>
</g>
<!-- q_def&#45;&gt;u_def -->
<g id="edge9" class="edge">
<title>q_def&#45;&gt;u_def</title>
<path fill="none" stroke="black" d="M180.73,-288.76C175.83,-280.19 169.72,-269.49 164.24,-259.9"/>
<polygon fill="black" stroke="black" points="167.23,-258.09 159.23,-251.15 161.16,-261.57 167.23,-258.09"/>
</g>
<!-- q_def&#45;&gt;q_prop -->
<g id="edge10" class="edge">
<title>q_def&#45;&gt;q_prop</title>
<path fill="none" stroke="black" d="M199.98,-288.76C205.17,-280.32 211.63,-269.8 217.46,-260.31"/>
<polygon fill="black" stroke="black" points="220.54,-261.99 222.79,-251.63 214.57,-258.32 220.54,-261.99"/>
</g>
</g>
</svg>
