<?xml version="1.0" encoding="UTF-8" standalone="no"?>
<!DOCTYPE svg PUBLIC "-//W3C//DTD SVG 1.1//EN"
 "http://www.w3.org/Graphics/SVG/1.1/DTD/svg11.dtd">
<!-- Generated by graphviz version 2.40.1 (20161225.0304)
 -->
<!-- Title: %3 Pages: 1 -->
<svg width="352pt" height="404pt"
 viewBox="0.00 0.00 352.38 404.00" xmlns="http://www.w3.org/2000/svg" xmlns:xlink="http://www.w3.org/1999/xlink">
<g id="graph0" class="graph" transform="scale(1 1) rotate(0) translate(4 400)">
<title>%3</title>
<polygon fill="#ffffff" stroke="transparent" points="-4,4 -4,-400 348.3818,-400 348.3818,4 -4,4"/>
<!-- continuity -->
<g id="node1" class="node">
<title>continuity</title>
<ellipse fill="none" stroke="#000000" cx="52.237" cy="-90" rx="47.5" ry="18"/>
<text text-anchor="middle" x="52.237" y="-86.3" font-family="Times,serif" font-size="14.00" fill="#000000">continuity</text>
</g>
<!-- uniqueness -->
<g id="node2" class="node">
<title>uniqueness</title>
<ellipse fill="none" stroke="#000000" cx="163.237" cy="-18" rx="51.5" ry="18"/>
<text text-anchor="middle" x="163.237" y="-14.3" font-family="Times,serif" font-size="14.00" fill="#000000">uniqueness</text>
</g>
<!-- continuity&#45;&gt;uniqueness -->
<g id="edge1" class="edge">
<title>continuity&#45;&gt;uniqueness</title>
<path fill="none" stroke="#000000" d="M76.3224,-74.3771C91.9599,-64.2338 112.5587,-50.8724 129.7778,-39.7033"/>
<polygon fill="#000000" stroke="#000000" points="131.9452,-42.4693 138.4301,-34.091 128.1358,-36.5966 131.9452,-42.4693"/>
</g>
<!-- u_prop -->
<g id="node3" class="node">
<title>u_prop</title>
<ellipse fill="none" stroke="#000000" cx="163.237" cy="-162" rx="36.5" ry="18"/>
<text text-anchor="middle" x="163.237" y="-158.3" font-family="Times,serif" font-size="14.00" fill="#000000">u_prop</text>
</g>
<!-- u_prop&#45;&gt;continuity -->
<g id="edge2" class="edge">
<title>u_prop&#45;&gt;continuity</title>
<path fill="none" stroke="#000000" d="M141.0413,-147.6028C124.9478,-137.1637 102.9255,-122.879 84.8381,-111.1466"/>
<polygon fill="#000000" stroke="#000000" points="86.6124,-108.1257 76.3181,-105.6202 82.803,-113.9985 86.6124,-108.1257"/>
</g>
<!-- existence -->
<g id="node4" class="node">
<title>existence</title>
<ellipse fill="none" stroke="#000000" cx="163.237" cy="-90" rx="45" ry="18"/>
<text text-anchor="middle" x="163.237" y="-86.3" font-family="Times,serif" font-size="14.00" fill="#000000">existence</text>
</g>
<!-- u_prop&#45;&gt;existence -->
<g id="edge3" class="edge">
<title>u_prop&#45;&gt;existence</title>
<path fill="none" stroke="#000000" d="M163.237,-143.8314C163.237,-136.131 163.237,-126.9743 163.237,-118.4166"/>
<polygon fill="#000000" stroke="#000000" points="166.7371,-118.4132 163.237,-108.4133 159.7371,-118.4133 166.7371,-118.4132"/>
</g>
<!-- monotonicity -->
<g id="node5" class="node">
<title>monotonicity</title>
<ellipse fill="none" stroke="#000000" cx="285.237" cy="-90" rx="59.2899" ry="18"/>
<text text-anchor="middle" x="285.237" y="-86.3" font-family="Times,serif" font-size="14.00" fill="#000000">monotonicity</text>
</g>
<!-- u_prop&#45;&gt;monotonicity -->
<g id="edge4" class="edge">
<title>u_prop&#45;&gt;monotonicity</title>
<path fill="none" stroke="#000000" d="M186.7599,-148.1177C204.4928,-137.6523 229.1246,-123.1155 249.3169,-111.1988"/>
<polygon fill="#000000" stroke="#000000" points="251.1196,-114.199 257.9528,-106.1022 247.5618,-108.1705 251.1196,-114.199"/>
</g>
<!-- existence&#45;&gt;uniqueness -->
<g id="edge5" class="edge">
<title>existence&#45;&gt;uniqueness</title>
<path fill="none" stroke="#000000" d="M163.237,-71.8314C163.237,-64.131 163.237,-54.9743 163.237,-46.4166"/>
<polygon fill="#000000" stroke="#000000" points="166.7371,-46.4132 163.237,-36.4133 159.7371,-46.4133 166.7371,-46.4132"/>
</g>
<!-- monotonicity&#45;&gt;uniqueness -->
<g id="edge6" class="edge">
<title>monotonicity&#45;&gt;uniqueness</title>
<path fill="none" stroke="#000000" d="M257.8578,-73.8418C240.2698,-63.462 217.2589,-49.8818 198.3335,-38.7126"/>
<polygon fill="#000000" stroke="#000000" points="200.0779,-35.6781 189.6869,-33.6098 196.5201,-41.7066 200.0779,-35.6781"/>
</g>
<!-- q_def -->
<g id="node6" class="node">
<title>q_def</title>
<ellipse fill="none" stroke="#000000" cx="216.237" cy="-306" rx="31.3957" ry="18"/>
<text text-anchor="middle" x="216.237" y="-302.3" font-family="Times,serif" font-size="14.00" fill="#000000">q_def</text>
</g>
<!-- q_prop -->
<g id="node7" class="node">
<title>q_prop</title>
<ellipse fill="none" stroke="#000000" cx="249.237" cy="-234" rx="36.5" ry="18"/>
<text text-anchor="middle" x="249.237" y="-230.3" font-family="Times,serif" font-size="14.00" fill="#000000">q_prop</text>
</g>
<!-- q_def&#45;&gt;q_prop -->
<g id="edge7" class="edge">
<title>q_def&#45;&gt;q_prop</title>
<path fill="none" stroke="#000000" d="M224.2254,-288.5708C228.0196,-280.2927 232.6406,-270.2104 236.8734,-260.9752"/>
<polygon fill="#000000" stroke="#000000" points="240.1081,-262.3178 241.093,-251.7689 233.7446,-259.4012 240.1081,-262.3178"/>
</g>
<!-- u_def -->
<g id="node8" class="node">
<title>u_def</title>
<ellipse fill="none" stroke="#000000" cx="163.237" cy="-234" rx="31.3957" ry="18"/>
<text text-anchor="middle" x="163.237" y="-230.3" font-family="Times,serif" font-size="14.00" fill="#000000">u_def</text>
</g>
<!-- q_def&#45;&gt;u_def -->
<g id="edge8" class="edge">
<title>q_def&#45;&gt;u_def</title>
<path fill="none" stroke="#000000" d="M203.9445,-289.3008C197.2553,-280.2135 188.8512,-268.7966 181.4187,-258.6996"/>
<polygon fill="#000000" stroke="#000000" points="184.2097,-256.5872 175.4628,-250.6087 178.5724,-260.7369 184.2097,-256.5872"/>
</g>
<!-- q_prop&#45;&gt;u_prop -->
<g id="edge11" class="edge">
<title>q_prop&#45;&gt;u_prop</title>
<path fill="none" stroke="#000000" d="M230.5763,-218.3771C218.6305,-208.376 202.9479,-195.2464 189.7229,-184.1742"/>
<polygon fill="#000000" stroke="#000000" points="191.7757,-181.3282 181.8613,-177.5924 187.2821,-186.6955 191.7757,-181.3282"/>
</g>
<!-- u_def&#45;&gt;u_prop -->
<g id="edge12" class="edge">
<title>u_def&#45;&gt;u_prop</title>
<path fill="none" stroke="#000000" d="M163.237,-215.8314C163.237,-208.131 163.237,-198.9743 163.237,-190.4166"/>
<polygon fill="#000000" stroke="#000000" points="166.7371,-190.4132 163.237,-180.4133 159.7371,-190.4133 166.7371,-190.4132"/>
</g>
<!-- missing_mathlib.data.finset.powerset -->
<g id="node9" class="node">
<title>missing_mathlib.data.finset.powerset</title>
<ellipse fill="none" stroke="#000000" cx="146.237" cy="-378" rx="146.4744" ry="18"/>
<text text-anchor="middle" x="146.237" y="-374.3" font-family="Times,serif" font-size="14.00" fill="#000000">missing_mathlib.data.finset.powerset</text>
</g>
<!-- missing_mathlib.data.finset.powerset&#45;&gt;q_def -->
<g id="edge9" class="edge">
<title>missing_mathlib.data.finset.powerset&#45;&gt;q_def</title>
<path fill="none" stroke="#000000" d="M163.901,-359.8314C172.9379,-350.5362 184.0378,-339.1192 193.6863,-329.195"/>
<polygon fill="#000000" stroke="#000000" points="196.2622,-331.5666 200.7235,-321.9568 191.2432,-326.687 196.2622,-331.5666"/>
</g>
<!-- v_prop -->
<g id="node10" class="node">
<title>v_prop</title>
<ellipse fill="none" stroke="#000000" cx="77.237" cy="-234" rx="36.5" ry="18"/>
<text text-anchor="middle" x="77.237" y="-230.3" font-family="Times,serif" font-size="14.00" fill="#000000">v_prop</text>
</g>
<!-- missing_mathlib.data.finset.powerset&#45;&gt;v_prop -->
<g id="edge10" class="edge">
<title>missing_mathlib.data.finset.powerset&#45;&gt;v_prop</title>
<path fill="none" stroke="#000000" d="M124.8621,-360.0013C114.7098,-350.3333 103.2831,-337.617 96.237,-324 86.2984,-304.793 81.5579,-280.7217 79.2971,-262.3073"/>
<polygon fill="#000000" stroke="#000000" points="82.7606,-261.7766 78.232,-252.1984 75.7992,-262.5101 82.7606,-261.7766"/>
</g>
<!-- v_prop&#45;&gt;u_prop -->
<g id="edge15" class="edge">
<title>v_prop&#45;&gt;u_prop</title>
<path fill="none" stroke="#000000" d="M95.8977,-218.3771C107.8435,-208.376 123.5261,-195.2464 136.7512,-184.1742"/>
<polygon fill="#000000" stroke="#000000" points="139.1919,-186.6955 144.6127,-177.5924 134.6983,-181.3282 139.1919,-186.6955"/>
</g>
<!-- v_def -->
<g id="node11" class="node">
<title>v_def</title>
<ellipse fill="none" stroke="#000000" cx="136.237" cy="-306" rx="31.3957" ry="18"/>
<text text-anchor="middle" x="136.237" y="-302.3" font-family="Times,serif" font-size="14.00" fill="#000000">v_def</text>
</g>
<!-- v_def&#45;&gt;u_def -->
<g id="edge13" class="edge">
<title>v_def&#45;&gt;u_def</title>
<path fill="none" stroke="#000000" d="M142.9112,-288.2022C145.9846,-280.0064 149.6986,-270.1024 153.1066,-261.0145"/>
<polygon fill="#000000" stroke="#000000" points="156.4055,-262.1853 156.6396,-251.593 149.8512,-259.7274 156.4055,-262.1853"/>
</g>
<!-- v_def&#45;&gt;v_prop -->
<g id="edge14" class="edge">
<title>v_def&#45;&gt;v_prop</title>
<path fill="none" stroke="#000000" d="M122.849,-289.6621C115.3374,-280.4953 105.8152,-268.8751 97.4164,-258.6257"/>
<polygon fill="#000000" stroke="#000000" points="100.0269,-256.2893 90.9815,-250.7729 94.6126,-260.7261 100.0269,-256.2893"/>
</g>
</g>
</svg>
